<svg width="80" height="80" viewBox="0 0 80 80" fill="none" xmlns="http://www.w3.org/2000/svg">
<g filter="url(#filter0_d_834_9369)">
<circle cx="40" cy="32" r="32" fill="#5D61C4"/>
</g>
<g clip-path="url(#clip0_834_9369)">
<path d="M55.527 26.2283C55.527 26.2283 45.2298 15.938 41.2207 11.9311C40.8847 11.5974 40.4458 11.4283 40.0092 11.4283C39.5704 11.4283 39.1315 11.5974 38.7955 11.9311C34.7887 15.938 24.4961 26.2214 24.4961 26.2214C24.1601 26.5574 23.9955 26.9963 24.0001 27.4374C24.0024 27.8717 24.1715 28.306 24.5052 28.6374C25.1727 29.3071 26.2561 29.3117 26.9189 28.6466L38.295 17.2729V50.8546C38.295 51.8009 39.063 52.5689 40.0092 52.5689C40.9532 52.5689 41.7235 51.8009 41.7235 50.8546V17.2729L53.1018 28.6511C53.7624 29.314 54.8435 29.3071 55.5132 28.6374C55.8447 28.306 56.0138 27.8717 56.0184 27.4374C56.023 26.9986 55.8584 26.5597 55.527 26.2283Z" fill="#FEFEFE"/>
</g>
<defs>
<filter id="filter0_d_834_9369" x="0" y="0" width="80" height="80" filterUnits="userSpaceOnUse" color-interpolation-filters="sRGB">
<feFlood flood-opacity="0" result="BackgroundImageFix"/>
<feColorMatrix in="SourceAlpha" type="matrix" values="0 0 0 0 0 0 0 0 0 0 0 0 0 0 0 0 0 0 127 0" result="hardAlpha"/>
<feOffset dy="8"/>
<feGaussianBlur stdDeviation="4"/>
<feComposite in2="hardAlpha" operator="out"/>
<feColorMatrix type="matrix" values="0 0 0 0 0 0 0 0 0 0 0 0 0 0 0 0 0 0 0.12 0"/>
<feBlend mode="normal" in2="BackgroundImageFix" result="effect1_dropShadow_834_9369"/>
<feBlend mode="normal" in="SourceGraphic" in2="effect1_dropShadow_834_9369" result="shape"/>
</filter>
<clipPath id="clip0_834_9369">
<rect width="33" height="42" fill="white" transform="translate(24 11)"/>
</clipPath>
</defs>
</svg>
