<svg width="32" height="28" viewBox="0 0 32 28" fill="none" xmlns="http://www.w3.org/2000/svg">
<path d="M29.7142 15.4282C30.661 15.4282 31.4285 14.6606 31.4285 13.7139C31.4285 12.7671 30.661 11.9996 29.7142 11.9996L29.7142 15.4282ZM1.07348 12.5017C0.404011 13.1712 0.404011 14.2566 1.07348 14.9261L11.9831 25.8357C12.6526 26.5052 13.738 26.5052 14.4075 25.8357C15.077 25.1662 15.077 24.0808 14.4075 23.4113L4.71003 13.7139L14.4075 4.0164C15.077 3.34693 15.077 2.26151 14.4075 1.59204C13.738 0.922569 12.6526 0.922569 11.9831 1.59204L1.07348 12.5017ZM29.7142 11.9996L2.28566 11.9996L2.28566 15.4282L29.7142 15.4282L29.7142 11.9996Z" fill="#5D61C4"/>
</svg>
