<svg width="48" height="43" viewBox="0 0 48 43" fill="none" xmlns="http://www.w3.org/2000/svg">
<path d="M42.4615 5.53846H36.0635L32.9193 0.822115C32.7507 0.569224 32.5223 0.361866 32.2543 0.21845C31.9864 0.075034 31.6871 -3.4327e-06 31.3832 1.17777e-10H16.614C16.31 -3.22935e-06 16.0108 0.0750341 15.7429 0.21845C15.4749 0.361866 15.2465 0.569224 15.0779 0.822115L11.9337 5.53846H5.5384C4.07002 5.54014 2.66227 6.1242 1.62397 7.16249C0.585673 8.20079 0.00161859 9.60855 -6.10352e-05 11.0769V36.9231C0.00161859 38.3915 0.585673 39.7992 1.62397 40.8375C2.66227 41.8758 4.07002 42.4599 5.5384 42.4615H42.4615C43.9299 42.4599 45.3376 41.8758 46.3759 40.8375C47.4142 39.7992 47.9983 38.3915 47.9999 36.9231V11.0769C47.9983 9.60855 47.4142 8.20079 46.3759 7.16249C45.3376 6.1242 43.9299 5.54014 42.4615 5.53846ZM44.3076 36.9231C44.3071 37.4125 44.1124 37.8818 43.7663 38.2279C43.4202 38.574 42.9509 38.7687 42.4615 38.7692H5.5384C5.04894 38.7687 4.57969 38.574 4.23359 38.2279C3.88749 37.8818 3.69281 37.4125 3.69225 36.9231V11.0769C3.69281 10.5875 3.88749 10.1182 4.23359 9.77211C4.57969 9.42601 5.04894 9.23133 5.5384 9.23077H12.9217C13.2256 9.23077 13.5248 9.15574 13.7928 9.01232C14.0607 8.8689 14.2891 8.66155 14.4577 8.40865L17.602 3.69231H30.3952L33.5395 8.40865C33.708 8.66155 33.9364 8.8689 34.2044 9.01232C34.4724 9.15574 34.7716 9.23077 35.0755 9.23077H42.4615C42.9509 9.23133 43.4202 9.42601 43.7663 9.77211C44.1124 10.1182 44.3071 10.5875 44.3076 11.0769V36.9231ZM23.9999 12.9231C21.9917 12.9231 20.0286 13.5186 18.3588 14.6343C16.689 15.75 15.3875 17.3358 14.619 19.1912C13.8505 21.0466 13.6494 23.0882 14.0412 25.0578C14.433 27.0275 15.4 28.8367 16.8201 30.2568C18.2401 31.6768 20.0494 32.6439 22.019 33.0357C23.9887 33.4275 26.0303 33.2264 27.8856 32.4579C29.741 31.6893 31.3268 30.3879 32.4426 28.7181C33.5583 27.0483 34.1538 25.0852 34.1538 23.0769C34.1507 20.3849 33.08 17.804 31.1764 15.9004C29.2729 13.9969 26.692 12.9261 23.9999 12.9231ZM23.9999 29.5385C22.722 29.5385 21.4727 29.1595 20.4101 28.4495C19.3475 27.7395 18.5193 26.7303 18.0303 25.5496C17.5412 24.369 17.4132 23.0698 17.6626 21.8163C17.9119 20.5629 18.5273 19.4116 19.4309 18.5079C20.3346 17.6043 21.4859 16.9889 22.7394 16.7395C23.9928 16.4902 25.292 16.6182 26.4727 17.1072C27.6534 17.5963 28.6625 18.4245 29.3725 19.4871C30.0825 20.5497 30.4615 21.799 30.4615 23.0769C30.4596 24.79 29.7782 26.4324 28.5668 27.6438C27.3555 28.8552 25.7131 29.5365 23.9999 29.5385Z" fill="#FF8362"/>
</svg>
