<svg width="20" height="19" viewBox="0 0 20 19" fill="none" xmlns="http://www.w3.org/2000/svg">
<path d="M10 1.66667C14.595 1.66667 18.3333 4.56333 18.3333 8.1225C18.3333 11.6825 14.6 14.5792 10.0117 14.5792C9.495 14.5792 9.10167 14.5408 8.54583 14.4983C7.7125 15.145 7.0675 15.6675 5.64167 16.1333C5.85833 14.9808 5.5475 14.2508 5.21333 13.4175C3.2275 12.1633 1.66667 10.575 1.66667 8.1225C1.66667 4.56333 5.405 1.66667 10 1.66667ZM10 0C4.4775 0 0 3.63583 0 8.1225C0 10.7308 1.51333 13.0525 3.8675 14.5383C4.59 16.3442 2.96417 17.8783 1.24833 18.29C3.81917 18.5117 6.895 17.8892 9.06 16.2092C14.96 16.6592 20 12.8858 20 8.1225C20 3.63583 15.5225 0 10 0Z" fill="#505D68"/>
</svg>
