<svg width="35" height="35" viewBox="0 0 35 35" fill="none" xmlns="http://www.w3.org/2000/svg">
<path fill-rule="evenodd" clip-rule="evenodd" d="M17.5 0C7.83708 0 0 7.83417 0 17.5C0 27.1644 7.83708 35 17.5 35C27.1644 35 35 27.1644 35 17.5C35 7.83417 27.1644 0 17.5 0ZM22.2367 26.7575L21.6956 24.869L23.0023 26.0837L24.2375 27.2271L26.4323 29.1667V10.8529C26.4323 9.68917 25.4931 8.75 24.3396 8.75H10.6604C9.50688 8.75 8.56771 9.68917 8.56771 10.8529V24.6546C8.56771 25.8183 9.50688 26.7575 10.6604 26.7575H22.2367ZM20.3992 22.0821L19.7254 21.2552C21.0627 20.8775 21.5731 20.0404 21.5731 20.0404C21.1546 20.316 20.7565 20.51 20.3992 20.6427C19.8888 20.8571 19.3988 21 18.919 21.0817C17.939 21.2654 17.0406 21.2144 16.275 21.0715C15.6931 20.9592 15.1929 20.7958 14.7744 20.6325C14.5396 20.5406 14.2844 20.4283 14.0292 20.2854L13.9883 20.2621L13.9781 20.2577L13.9373 20.2344L13.8965 20.2038L13.6106 20.0302C13.6106 20.0302 14.1006 20.8469 15.3971 21.2348L14.7131 22.0821C12.4571 22.0106 11.5996 20.5304 11.5996 20.5304C11.5996 17.2433 13.0696 14.579 13.0696 14.579C14.5396 13.4765 15.9381 13.5071 15.9381 13.5071L16.0402 13.6296C14.2027 14.1604 13.3554 14.9669 13.3554 14.9669L13.9577 14.6708C15.05 14.191 15.9177 14.0583 16.275 14.0277L16.4485 14.0073C17.0713 13.9256 17.7756 13.9052 18.5106 13.9869C19.4804 14.0992 20.5217 14.385 21.5833 14.9669C21.5833 14.9669 20.7769 14.2013 19.0415 13.6704L19.1844 13.5071C19.1844 13.5071 20.5829 13.4765 22.0529 14.579C22.0529 14.579 23.5229 17.2433 23.5229 20.5304C23.5229 20.5304 22.6873 21.9552 20.3992 22.0821ZM19.3783 17.3148C18.7965 17.3148 18.3371 17.8252 18.3371 18.4479C18.3371 19.0706 18.8067 19.581 19.3783 19.581C19.9602 19.581 20.4196 19.0706 20.4196 18.4479C20.4196 17.8252 19.9602 17.3148 19.3783 17.3148ZM15.6523 17.3148C15.0704 17.3148 14.611 17.8252 14.611 18.4479C14.611 19.0706 15.0806 19.581 15.6523 19.581C16.2342 19.581 16.6935 19.0706 16.6935 18.4479C16.7038 17.8252 16.2342 17.3148 15.6523 17.3148Z" fill="#FFFCF4"/>
</svg>
