<svg width="48" height="39" viewBox="0 0 48 39" fill="none" xmlns="http://www.w3.org/2000/svg">
<path d="M44.8302 5.43396H29.132C29.0341 5.43375 28.9389 5.402 28.8604 5.34342L22.5811 0.634028C22.0318 0.223777 21.3649 0.00144962 20.6793 0H10.4151C9.5747 0.00094206 8.76899 0.335205 8.17474 0.929456C7.58049 1.52371 7.24623 2.32941 7.24528 3.16981V7.24528H3.16981C2.32941 7.24623 1.52371 7.58049 0.929457 8.17474C0.335206 8.76899 0.00094206 9.5747 0 10.4151V35.7736C0.00094206 36.614 0.335206 37.4197 0.929457 38.0139C1.52371 38.6082 2.32941 38.9425 3.16981 38.9434H37.7861C38.5732 38.9425 39.3277 38.6294 39.8842 38.0729C40.4408 37.5164 40.7538 36.7618 40.7547 35.9748V31.6981H45.0314C45.8184 31.6972 46.573 31.3842 47.1295 30.8276C47.6861 30.2711 47.9991 29.5166 48 28.7295V8.60377C47.9991 7.76338 47.6648 6.95767 47.0705 6.36342C46.4763 5.76917 45.6706 5.4349 44.8302 5.43396ZM38.0377 35.9748C38.0377 36.0415 38.0111 36.1055 37.964 36.1526C37.9168 36.1998 37.8528 36.2263 37.7861 36.2264H3.16981C3.04976 36.2263 2.93466 36.1785 2.84976 36.0936C2.76487 36.0087 2.71712 35.8936 2.71698 35.7736V10.4151C2.71712 10.295 2.76487 10.1799 2.84976 10.095C2.93466 10.0102 3.04976 9.9624 3.16981 9.96226H13.434C13.5319 9.96248 13.6272 9.99423 13.7056 10.0528L19.9849 14.7622C20.5342 15.1724 21.2011 15.3948 21.8868 15.3962H37.5849C37.705 15.3964 37.8201 15.4441 37.905 15.529C37.9898 15.6139 38.0376 15.729 38.0377 15.8491V35.9748ZM45.283 28.7295C45.2829 28.7962 45.2564 28.8602 45.2092 28.9074C45.1621 28.9545 45.0981 28.9811 45.0314 28.9811H40.7547V15.8491C40.7538 15.0087 40.4195 14.203 39.8253 13.6087C39.231 13.0145 38.4253 12.6802 37.5849 12.6792H21.8868C21.7888 12.679 21.6936 12.6473 21.6151 12.5887L15.3359 7.87931C14.7865 7.46906 14.1196 7.24673 13.434 7.24528H9.96226V3.16981C9.9624 3.04976 10.0102 2.93466 10.095 2.84976C10.1799 2.76487 10.295 2.71712 10.4151 2.71698H20.6793C20.7772 2.71719 20.8725 2.74894 20.9509 2.80752L27.2302 7.51691C27.7795 7.92717 28.4464 8.14949 29.132 8.15094H44.8302C44.9502 8.15108 45.0653 8.19883 45.1502 8.28373C45.2351 8.36862 45.2829 8.48372 45.283 8.60377V28.7295Z" fill="#FF8362"/>
</svg>
