<svg width="35" height="35" viewBox="0 0 35 35" fill="none" xmlns="http://www.w3.org/2000/svg">
<path d="M21.6256 9.19042C20.5494 9.14083 20.2256 9.13208 17.5 9.13208C14.7744 9.13208 14.4521 9.14229 13.3758 9.19042C10.6065 9.31729 9.31729 10.6283 9.19042 13.3758C9.14229 14.4521 9.13063 14.7744 9.13063 17.5C9.13063 20.2256 9.14229 20.5479 9.19042 21.6256C9.31729 24.3658 10.6006 25.6842 13.3758 25.811C14.4506 25.8592 14.7744 25.8708 17.5 25.8708C20.2271 25.8708 20.5494 25.8606 21.6256 25.811C24.395 25.6856 25.6827 24.3702 25.811 21.6256C25.8592 20.5494 25.8694 20.2256 25.8694 17.5C25.8694 14.7744 25.8592 14.4521 25.811 13.3758C25.6827 10.6298 24.3921 9.31729 21.6256 9.19042ZM17.5 22.7427C14.6052 22.7427 12.2573 20.3962 12.2573 17.5C12.2573 14.6052 14.6052 12.2588 17.5 12.2588C20.3948 12.2588 22.7427 14.6052 22.7427 17.5C22.7427 20.3948 20.3948 22.7427 17.5 22.7427ZM22.9498 13.2767C22.2731 13.2767 21.7248 12.7283 21.7248 12.0517C21.7248 11.375 22.2731 10.8267 22.9498 10.8267C23.6265 10.8267 24.1748 11.375 24.1748 12.0517C24.1748 12.7269 23.6265 13.2767 22.9498 13.2767ZM20.9023 17.5C20.9023 19.3798 19.3783 20.9023 17.5 20.9023C15.6217 20.9023 14.0977 19.3798 14.0977 17.5C14.0977 15.6202 15.6217 14.0977 17.5 14.0977C19.3783 14.0977 20.9023 15.6202 20.9023 17.5ZM17.5 0C7.83563 0 0 7.83563 0 17.5C0 27.1644 7.83563 35 17.5 35C27.1644 35 35 27.1644 35 17.5C35 7.83563 27.1644 0 17.5 0ZM27.6471 21.7087C27.4794 25.4202 25.4129 27.4765 21.7102 27.6471C20.6208 27.6967 20.2723 27.7083 17.5 27.7083C14.7277 27.7083 14.3806 27.6967 13.2913 27.6471C9.58125 27.4765 7.52354 25.4173 7.35292 21.7087C7.30333 20.6208 7.29167 20.2723 7.29167 17.5C7.29167 14.7277 7.30333 14.3806 7.35292 13.2913C7.52354 9.58125 9.58271 7.52354 13.2913 7.35438C14.3806 7.30333 14.7277 7.29167 17.5 7.29167C20.2723 7.29167 20.6208 7.30333 21.7102 7.35438C25.4217 7.525 27.4808 9.58854 27.6471 13.2913C27.6967 14.3806 27.7083 14.7277 27.7083 17.5C27.7083 20.2723 27.6967 20.6208 27.6471 21.7087Z" fill="#FEFEFE"/>
</svg>
