<svg width="38" height="48" viewBox="0 0 38 48" fill="none" xmlns="http://www.w3.org/2000/svg">
<path d="M18.7586 10.2857C17.0722 10.2857 15.4237 10.7884 14.0215 11.7303C12.6193 12.6721 11.5264 14.0108 10.881 15.577C10.2357 17.1432 10.0668 18.8667 10.3958 20.5293C10.7248 22.192 11.5369 23.7193 12.7294 24.9181C13.9218 26.1168 15.4411 26.9331 17.0952 27.2639C18.7492 27.5946 20.4636 27.4249 22.0216 26.7761C23.5797 26.1274 24.9113 25.0287 25.8483 23.6192C26.7852 22.2096 27.2853 20.5524 27.2853 18.8571C27.2827 16.5847 26.3835 14.406 24.785 12.7991C23.1865 11.1922 21.0192 10.2883 18.7586 10.2857ZM18.7586 24C17.7468 24 16.7577 23.6984 15.9163 23.1333C15.075 22.5682 14.4193 21.765 14.0321 20.8252C13.6448 19.8855 13.5435 18.8514 13.7409 17.8538C13.9383 16.8562 14.4256 15.9398 15.1411 15.2206C15.8566 14.5014 16.7681 14.0115 17.7605 13.8131C18.7529 13.6147 19.7816 13.7165 20.7164 14.1058C21.6513 14.495 22.4503 15.1542 23.0124 15.9999C23.5746 16.8457 23.8746 17.84 23.8746 18.8571C23.8731 20.2206 23.3336 21.5278 22.3745 22.492C21.4154 23.4561 20.115 23.9984 18.7586 24ZM18.7586 0C13.7853 0.00564723 9.01718 1.99419 5.50048 5.52937C1.98377 9.06454 0.00561773 13.8577 0 18.8571C0 25.585 3.0932 32.7169 8.94507 39.482C11.5785 42.5388 14.5419 45.2917 17.7806 47.6901C18.0673 47.8918 18.4087 48 18.7586 48C19.1085 48 19.45 47.8918 19.7366 47.6901C22.9753 45.2917 25.9387 42.5388 28.5722 39.482C34.424 32.7169 37.5172 25.585 37.5172 18.8571C37.5116 13.8577 35.5335 9.06454 32.0168 5.52937C28.5001 1.99419 23.732 0.00564723 18.7586 0ZM18.7586 44.1385C15.2343 41.3599 3.41066 31.1212 3.41066 18.8571C3.41066 14.7652 5.02767 10.8409 7.90597 7.94749C10.7843 5.05408 14.6881 3.42857 18.7586 3.42857C22.8292 3.42857 26.733 5.05408 29.6113 7.94749C32.4896 10.8409 34.1066 14.7652 34.1066 18.8571C34.1066 31.1212 22.2823 41.3603 18.7586 44.1385Z" fill="#FF8362"/>
</svg>
