<svg width="48" height="48" viewBox="0 0 48 48" fill="none" xmlns="http://www.w3.org/2000/svg">
<circle cx="24" cy="24" r="24" fill="#F2F5F7"/>
<path d="M24 15.6429C22.9212 15.6429 21.8666 15.9675 20.9696 16.5758C20.0726 17.1841 19.3735 18.0486 18.9607 19.0601C18.5478 20.0717 18.4398 21.1847 18.6503 22.2585C18.8607 23.3324 19.3802 24.3187 20.1431 25.0929C20.9059 25.8671 21.8778 26.3943 22.9359 26.6079C23.9939 26.8215 25.0907 26.7119 26.0874 26.2929C27.0841 25.8739 27.9359 25.1644 28.5353 24.254C29.1346 23.3437 29.4545 22.2734 29.4545 21.1786C29.4529 19.7109 28.8777 18.3039 27.8551 17.2661C26.8326 16.2283 25.4461 15.6445 24 15.6429ZM24 24.5C23.3527 24.5 22.72 24.3052 22.1818 23.9402C21.6436 23.5753 21.2241 23.0565 20.9764 22.4496C20.7287 21.8427 20.6639 21.1749 20.7902 20.5306C20.9164 19.8863 21.2281 19.2945 21.6858 18.83C22.1435 18.3655 22.7267 18.0491 23.3615 17.921C23.9964 17.7928 24.6544 17.8586 25.2524 18.11C25.8504 18.3614 26.3616 18.7871 26.7212 19.3333C27.0808 19.8795 27.2727 20.5217 27.2727 21.1786C27.2717 22.0592 26.9266 22.9034 26.3131 23.5261C25.6995 24.1487 24.8677 24.499 24 24.5ZM24 9C20.8185 9.00365 17.7683 10.2879 15.5187 12.571C13.269 14.8542 12.0036 17.9497 12 21.1786C12 25.5236 13.9787 30.1296 17.7222 34.4988C19.4068 36.473 21.3025 38.2509 23.3744 39.7998C23.5577 39.9301 23.7762 40 24 40C24.2238 40 24.4423 39.9301 24.6256 39.7998C26.6975 38.2509 28.5932 36.473 30.2778 34.4988C34.0213 30.1296 36 25.5236 36 21.1786C35.9964 17.9497 34.731 14.8542 32.4813 12.571C30.2317 10.2879 27.1815 9.00365 24 9ZM24 37.5061C21.7455 35.7116 14.1818 29.0991 14.1818 21.1786C14.1818 18.5359 15.2162 16.0014 17.0575 14.1328C18.8988 12.2641 21.3961 11.2143 24 11.2143C26.6039 11.2143 29.1012 12.2641 30.9425 14.1328C32.7838 16.0014 33.8182 18.5359 33.8182 21.1786C33.8182 29.0991 26.2541 35.7118 24 37.5061Z" fill="#FF8362"/>
</svg>
