<svg width="155" height="160" viewBox="0 0 155 160" fill="none" xmlns="http://www.w3.org/2000/svg">
<path d="M155 94.1455C155 82.4037 143.84 72.1028 131.116 72.1028C118.392 72.1028 107.232 82.4037 107.232 94.1455C107.232 106.352 117.466 123.566 131.116 145.12C144.766 123.566 155 106.352 155 94.1455Z" fill="#1E798D"/>
<path d="M148.175 48.5595C148.175 58.17 140.384 65.9608 130.774 65.9608C121.163 65.9608 113.373 58.17 113.373 48.5595C113.373 38.949 121.163 31.1582 130.774 31.1582C140.384 31.1582 148.175 38.949 148.175 48.5595Z" fill="#1E798D"/>
<path fill-rule="evenodd" clip-rule="evenodd" d="M92.5079 113.034C88.5999 114.515 84.3621 115.326 79.935 115.326C60.3372 115.326 44.45 99.439 44.45 79.8412C44.45 60.2434 60.3372 44.3562 79.935 44.3562C85.0453 44.3562 89.9033 45.4365 94.2931 47.3811C94.942 30.3047 107.32 16.2322 123.601 12.9881C111.053 4.77525 96.0516 0 79.935 0C35.8399 0 0.09375 35.7461 0.09375 79.8412C0.09375 123.936 35.8399 159.682 79.935 159.682C91.9893 159.682 103.42 157.011 113.666 152.228C107.578 142.561 101.873 133.188 97.5779 124.604C95.7561 120.963 93.98 117.073 92.5079 113.034Z" fill="#FF8362"/>
</svg>
