<svg width="30" height="31" viewBox="0 0 30 31" fill="none" xmlns="http://www.w3.org/2000/svg">
<path fill-rule="evenodd" clip-rule="evenodd" d="M29.4446 25.4428C25.8876 23.9974 25.7523 17.7932 25.7497 17.6367V13.4744C25.7497 9.46842 23.0292 6.02372 19.1633 4.55701C19.1549 2.49743 17.2907 0.824219 15.0001 0.824219C12.7094 0.824219 10.8452 2.49753 10.8369 4.55691C6.97111 6.02363 4.25056 9.46833 4.25056 13.4743V17.6366C4.24804 17.7931 4.11262 23.9973 0.555496 25.4427C0.150282 25.6074 -0.072425 26.0043 0.0212628 26.3954C0.114841 26.7866 0.499273 27.066 0.943975 27.066H9.96163C10.1465 27.981 10.6273 28.8323 11.3628 29.5218C12.3396 30.4376 13.6314 30.9419 14.9999 30.9419C16.3686 30.9419 17.6604 30.4376 18.6371 29.5218C19.3726 28.8323 19.8535 27.9809 20.0382 27.066H29.0559C29.5006 27.066 29.885 26.7867 29.9786 26.3954C30.0724 26.0043 29.8498 25.6074 29.4446 25.4428ZM24.7588 22.4711C25.1327 23.4911 25.6622 24.5155 26.413 25.368H3.5868C4.3375 24.5156 4.86697 23.4913 5.2409 22.4711H24.7588ZM17.1863 4.00323C16.9122 3.1493 16.0361 2.52283 15 2.52283C13.964 2.52283 13.0879 3.14935 12.8138 4.00323C13.5199 3.87139 14.2511 3.80195 15 3.80195C15.7489 3.80195 16.4801 3.87144 17.1863 4.00323ZM6.13823 17.6424V13.4749C6.13823 9.07813 10.1136 5.5011 15 5.5011C19.8865 5.5011 23.8618 9.07813 23.8618 13.4749V17.6494C23.8631 17.7771 23.8852 19.1198 24.2612 20.7726H5.73859C6.11487 19.1182 6.13708 17.7732 6.13823 17.6424ZM11.8984 27.066C12.302 28.3088 13.5593 29.2435 15 29.2435C16.4408 29.2435 17.6979 28.3088 18.1014 27.066H11.8984Z" fill="#5D61C4"/>
</svg>
