<svg width="48" height="48" viewBox="0 0 48 48" fill="none" xmlns="http://www.w3.org/2000/svg">
<circle cx="24" cy="24" r="24" fill="#F2F5F7"/>
<path d="M36.9528 15.4884H26.8144C26.7512 15.4882 26.6897 15.4679 26.639 15.4302L22.5837 12.407C22.2289 12.1437 21.7982 12.0009 21.3554 12H14.7264C14.1837 12.0006 13.6633 12.2152 13.2795 12.5967C12.8957 12.9782 12.6799 13.4954 12.6792 14.0349V16.6512H10.0472C9.50441 16.6518 8.98406 16.8664 8.60027 17.2478C8.21649 17.6293 8.00061 18.1465 8 18.686V34.9651C8.00061 35.5046 8.21649 36.0218 8.60027 36.4033C8.98406 36.7848 9.50441 36.9994 10.0472 37H32.4035C32.9118 36.9994 33.3991 36.7985 33.7586 36.4412C34.118 36.0839 34.3202 35.5995 34.3208 35.0943V32.3488H37.0828C37.5911 32.3483 38.0784 32.1473 38.4378 31.79C38.7972 31.4328 38.9994 30.9484 39 30.4431V17.5233C38.9994 16.9838 38.7835 16.4665 38.3997 16.085C38.0159 15.7036 37.4956 15.489 36.9528 15.4884ZM32.566 35.0943C32.566 35.1371 32.5489 35.1782 32.5184 35.2084C32.4879 35.2387 32.4466 35.2558 32.4035 35.2558H10.0472C9.96963 35.2557 9.8953 35.2251 9.84047 35.1706C9.78565 35.1161 9.75481 35.0422 9.75472 34.9651V18.686C9.75481 18.609 9.78565 18.5351 9.84047 18.4806C9.8953 18.4261 9.96963 18.3954 10.0472 18.3953H16.6761C16.7394 18.3955 16.8009 18.4159 16.8516 18.4535L20.9069 21.4767C21.2617 21.7401 21.6924 21.8828 22.1352 21.8837H32.2736C32.3511 21.8838 32.4255 21.9145 32.4803 21.969C32.5351 22.0235 32.566 22.0973 32.566 22.1744V35.0943ZM37.2453 30.4431C37.2452 30.4859 37.2281 30.527 37.1976 30.5573C37.1672 30.5876 37.1259 30.6046 37.0828 30.6047H34.3208V22.1744C34.3201 21.6349 34.1043 21.1177 33.7205 20.7362C33.3367 20.3547 32.8163 20.1401 32.2736 20.1395H22.1352C22.072 20.1394 22.0104 20.119 21.9598 20.0814L17.9044 17.0582C17.5496 16.7948 17.1189 16.6521 16.6761 16.6512H14.434V14.0349C14.4341 13.9578 14.4649 13.8839 14.5197 13.8294C14.5745 13.7749 14.6489 13.7443 14.7264 13.7442H21.3554C21.4186 13.7443 21.4801 13.7647 21.5308 13.8023L25.5862 16.8255C25.9409 17.0889 26.3716 17.2316 26.8144 17.2326H36.9528C37.0304 17.2326 37.1047 17.2633 37.1595 17.3178C37.2144 17.3723 37.2452 17.4462 37.2453 17.5233V30.4431Z" fill="#FF8362"/>
</svg>
