<svg width="48" height="48" viewBox="0 0 48 48" fill="none" xmlns="http://www.w3.org/2000/svg">
<circle cx="24" cy="24" r="24" fill="#F2F5F7"/>
<path d="M18.0909 35.5833V16.25H34.6364V25.3645C34.6364 30.3271 27.5455 28.3333 27.5455 28.3333C27.5455 28.3333 29.3395 35.5833 24.4278 35.5833H18.0909ZM37 26.3831V13.8333H15.7273V38H25.4052C29.1433 38 37 29.2722 37 26.3831ZM25.1818 28.3333H20.4545V27.125H25.1818V28.3333ZM32.2727 23.5H20.4545V24.7083H32.2727V23.5ZM32.2727 19.875H20.4545V21.0833H32.2727V19.875ZM33.4545 11.4167H13.3636V34.375H11V9H33.4545V11.4167Z" fill="#FF8362"/>
</svg>
