<svg width="48" height="48" viewBox="0 0 48 48" fill="none" xmlns="http://www.w3.org/2000/svg">
<circle cx="24" cy="24" r="24" fill="#F2F5F7"/>
<path d="M38.911 24.0746C38.8656 23.9709 37.7718 21.5052 35.3391 19.0331C32.0991 15.7405 28.0051 14 23.5 14C18.9949 14 14.9009 15.7405 11.6609 19.0331C9.22819 21.5052 8.13443 23.9709 8.08902 24.0746C8.03033 24.2088 8 24.3541 8 24.501C8 24.6479 8.03033 24.7932 8.08902 24.9275C8.13443 25.0313 9.22832 27.4963 11.661 29.968C14.9011 33.2599 18.9949 35 23.5 35C28.0051 35 32.0989 33.2599 35.339 29.968C37.7717 27.4963 38.8656 25.0313 38.911 24.9275C38.9697 24.7932 39 24.6479 39 24.501C39 24.3541 38.9697 24.2088 38.911 24.0746V24.0746ZM23.5 32.9C19.5242 32.9 16.0504 31.4319 13.1751 28.5364C11.9934 27.3448 10.9878 25.9856 10.1896 24.501C10.9878 23.0161 11.9933 21.6565 13.1751 20.4646C16.0504 17.5685 19.5243 16.1 23.5 16.1C27.4757 16.1 30.9495 17.5685 33.8249 20.4646C35.0067 21.6565 36.0124 23.0162 36.8105 24.5012C35.8788 26.2665 31.8224 32.9 23.5 32.9ZM23.5 18.2012C22.2738 18.2012 21.075 18.5706 20.0555 19.2629C19.0359 19.9551 18.2412 20.9391 17.7719 22.0902C17.3027 23.2414 17.1799 24.5081 17.4191 25.7302C17.6583 26.9523 18.2488 28.0749 19.1159 28.9559C19.983 29.837 21.0878 30.437 22.2904 30.6801C23.4931 30.9232 24.7397 30.7984 25.8726 30.3216C27.0055 29.8448 27.9739 29.0373 28.6551 28.0012C29.3364 26.9652 29.7 25.7472 29.7 24.5012C29.6982 22.8309 29.0444 21.2295 27.882 20.0484C26.7197 18.8674 25.1438 18.203 23.5 18.2012V18.2012ZM23.5 28.7012C22.6825 28.7012 21.8834 28.4548 21.2036 27.9933C20.5239 27.5318 19.9941 26.8759 19.6813 26.1084C19.3684 25.341 19.2866 24.4965 19.4461 23.6818C19.6056 22.8671 19.9992 22.1187 20.5773 21.5313C21.1553 20.9439 21.8918 20.5439 22.6936 20.3819C23.4954 20.2198 24.3265 20.303 25.0818 20.6209C25.837 20.9387 26.4826 21.4771 26.9367 22.1678C27.3909 22.8584 27.6333 23.6705 27.6333 24.5012C27.6321 25.6147 27.1962 26.6822 26.4213 27.4696C25.6464 28.257 24.5958 28.6999 23.5 28.7012V28.7012Z" fill="#FF8362"/>
</svg>
