<svg width="48" height="32" viewBox="0 0 48 32" fill="none" xmlns="http://www.w3.org/2000/svg">
<path d="M47.8622 15.3518C47.7918 15.1938 46.0983 11.4365 42.3315 7.66955C37.3147 2.65215 30.9756 0 24 0C17.0244 0 10.6853 2.65215 5.66852 7.66955C1.90171 11.4366 0.208155 15.1938 0.137841 15.3518C0.0469583 15.5564 0 15.7777 0 16.0016C0 16.2255 0.0469583 16.4468 0.137841 16.6514C0.208155 16.8096 1.90191 20.5659 5.66871 24.3323C10.6855 29.3485 17.0244 32.0001 24 32.0001C30.9756 32.0001 37.3145 29.3485 42.3313 24.3323C46.0981 20.5659 47.7918 16.8096 47.8622 16.6514C47.953 16.4468 48 16.2255 48 16.0016C48 15.7777 47.953 15.5564 47.8622 15.3518ZM24 28.8001C17.8439 28.8001 12.4652 26.5629 8.01305 22.1508C6.18332 20.3351 4.62626 18.2638 3.39039 16.0016C4.62619 13.7389 6.18325 11.6671 8.01305 9.8508C12.4652 5.43771 17.8441 3.20001 24 3.20001C30.1559 3.20001 35.5348 5.43771 39.9869 9.8508C41.8169 11.6671 43.374 13.739 44.6098 16.0018C43.1672 18.6918 36.8864 28.8001 24 28.8001ZM24 6.40177C22.1013 6.40177 20.2452 6.9648 18.6665 8.01966C17.0878 9.07453 15.8573 10.5738 15.1307 12.328C14.4041 14.0822 14.214 16.0124 14.5844 17.8747C14.9549 19.7369 15.8692 21.4474 17.2118 22.79C18.5543 24.1326 20.2649 25.0469 22.1271 25.4173C23.9893 25.7878 25.9196 25.5977 27.6738 24.8711C29.4279 24.1444 30.9273 22.914 31.9821 21.3353C33.037 19.7566 33.6 17.9005 33.6 16.0018C33.5972 13.4566 32.5848 11.0164 30.7851 9.21669C28.9854 7.41696 26.5452 6.40462 24 6.40177ZM24 22.4018C22.7342 22.4018 21.4968 22.0264 20.4443 21.3232C19.3919 20.62 18.5716 19.6204 18.0872 18.451C17.6028 17.2815 17.476 15.9947 17.723 14.7532C17.9699 13.5117 18.5794 12.3714 19.4745 11.4763C20.3696 10.5812 21.5099 9.9717 22.7514 9.72475C23.9929 9.47781 25.2797 9.60455 26.4492 10.0889C27.6186 10.5734 28.6182 11.3937 29.3214 12.4461C30.0247 13.4986 30.4 14.736 30.4 16.0018C30.3981 17.6986 29.7232 19.3253 28.5233 20.5251C27.3235 21.725 25.6968 22.3999 24 22.4018Z" fill="#FF8362"/>
</svg>
